# xmcd CD database file
#
# Track frame offsets:
#	150
#	12105
#	43905
#	70895
#	93220
#	116220
#	142315
#	175675
#	205640
#	223990
#	244600
#	262045
#
# Disc length: 3774 seconds
#
# Revision: 0
# Processed by: cddbd v1.5.2PL0 Copyright (c) Steve Scherf et al.
# Submitted via: CDex 1.70beta2
#
DISCID=b40ebc0c
DTITLE=Schroeder-Headz - LIVE -Synesthesia-
DYEAR=2014
DGENRE=Jazz
TTITLE0=Memento Mori(2014 Live)
TTITLE1=Tokyo Tribal Sacrifice(2014 Live)
TTITLE2=no sign(2014 Live)
TTITLE3=3 On 3(2014 Live)
TTITLE4=Sleepin' Bird(2014 Live)
TTITLE5=Blue BIrd(2014 Live)
TTITLE6=Wildthing's Arm(2014 Live)
TTITLE7=baby's star jam(2014 Live)
TTITLE8=Follow Me(2014 Live)
TTITLE9=newdays(2014 Live)
TTITLE10=Linus and Lucy(2014 Live)
TTITLE11=sketch of lovers(2014 Live)
EXTD=YEAR: 2014
EXTT0=
EXTT1=
EXTT2=
EXTT3=
EXTT4=
EXTT5=
EXTT6=
EXTT7=
EXTT8=
EXTT9=
EXTT10=
EXTT11=
PLAYORDER=
